<?xml version="1.0" standalone="no"?>
<!DOCTYPE svg PUBLIC "-//W3C//DTD SVG 20010904//EN"
 "http://www.w3.org/TR/2001/REC-SVG-20010904/DTD/svg10.dtd">
<svg version="1.0" xmlns="http://www.w3.org/2000/svg"
 width="512.000000pt" height="512.000000pt" viewBox="0 0 512.000000 512.000000"
 preserveAspectRatio="xMidYMid meet">

<g transform="translate(0.000000,512.000000) scale(0.100000,-0.100000)"
fill="#000000" stroke="none">
<path d="M303 5093 c-11 -10 -82 -82 -157 -160 -113 -118 -136 -147 -136 -172
0 -27 82 -112 688 -718 620 -621 690 -694 719 -753 45 -93 59 -180 45 -278
-20 -126 -28 -109 151 -290 l162 -163 -884 -878 -884 -877 6 -39 c10 -59 100
-230 172 -326 78 -105 219 -240 316 -305 96 -63 217 -124 248 -124 27 0 84 55
1262 1228 l545 543 890 -881 c502 -497 899 -883 913 -887 30 -7 141 46 261
125 109 72 270 233 343 343 62 93 133 237 144 290 6 33 0 39 -878 911 l-884
877 164 165 164 164 -9 69 c-22 165 -2 279 64 376 17 24 335 349 707 722 471
472 675 684 675 699 0 32 -24 63 -172 215 -121 124 -141 141 -170 141 -29 0
-92 -60 -723 -689 -379 -378 -706 -697 -725 -709 -19 -11 -62 -28 -94 -37 -59
-17 -139 -17 -275 1 l-43 6 -174 -173 -174 -174 -174 174 -174 173 -43 -6
c-136 -18 -216 -18 -275 -1 -32 9 -75 26 -94 37 -19 12 -346 331 -725 709
-618 616 -694 689 -722 689 -17 0 -40 -8 -50 -17z m370 -650 l-76 -84 -53 52
-53 52 77 83 77 83 52 -51 52 -51 -76 -84z m3890 91 l67 -70 -54 -53 -53 -52
-77 85 -78 86 54 49 c39 37 56 47 64 38 5 -7 40 -44 77 -83z m-2255 -1157
l142 -142 -118 -118 -117 -117 -188 188 -189 189 25 35 c13 20 29 50 36 67
l13 30 102 4 c55 1 112 4 126 5 20 2 53 -26 168 -141z m817 133 l83 0 12 -31
c7 -17 24 -47 37 -67 l25 -35 -1246 -1246 -1245 -1245 -253 -12 c-139 -7 -253
-12 -254 -11 -1 1 599 600 1334 1330 l1337 1328 44 -6 c24 -3 81 -5 126 -5z
m-1130 -730 l-115 -115 -133 133 -134 133 1 135 c1 82 5 134 11 134 6 1 33 16
60 34 l50 34 188 -186 187 -187 -115 -115z m1505 420 c3 0 5 -44 5 -97 0 -54
2 -113 5 -131 5 -32 -25 -63 -1325 -1352 -1067 -1058 -1331 -1315 -1333 -1297
-1 12 8 118 22 236 l24 214 203 206 c112 113 671 674 1243 1247 l1038 1041 56
-33 c31 -19 58 -34 62 -34z m545 -1547 c439 -436 792 -793 784 -792 -8 0 -124
6 -257 13 l-244 13 -664 664 -664 664 117 117 c65 65 121 117 124 116 4 -2
365 -360 804 -795z m-41 -659 l219 -225 24 -217 c13 -119 22 -225 21 -234 -2
-11 -275 253 -801 774 l-798 791 113 114 113 113 445 -445 c245 -246 543 -547
664 -671z m-3269 -306 c-3 -24 -16 -141 -29 -261 -13 -120 -25 -220 -27 -222
-7 -7 -156 98 -220 154 -91 81 -238 275 -251 331 -2 13 29 17 207 26 116 6
236 12 268 12 l58 2 -6 -42z m4013 26 c89 -4 164 -10 167 -13 6 -11 -82 -150
-141 -223 -63 -78 -185 -185 -273 -240 l-60 -38 -6 33 c-3 17 -14 120 -25 227
-11 107 -23 213 -26 234 l-6 39 103 -6 c57 -4 177 -10 267 -13z"/>
<path d="M2480 1160 c-241 -37 -435 -219 -485 -455 -18 -88 -18 -142 0 -230
67 -318 383 -523 694 -450 109 26 188 71 273 156 89 88 138 177 164 299 47
221 -55 462 -249 590 -110 72 -273 109 -397 90z"/>
</g>
</svg>
